<svg xmlns="http://www.w3.org/2000/svg" xmlns:xlink="http://www.w3.org/1999/xlink" preserveAspectRatio="xMinYMid meet" viewBox="0 0 148 122"><defs><path id="a" d="M0 .188h143.931V30H0z"/><path id="c" d="M.084.004h3.797v3.861H.084z"/></defs><g fill="none" fill-rule="evenodd"><g transform="translate(0 92)"><mask id="b" fill="#fff"><use xlink:href="#a"/></mask><path fill="#020203" d="M49.684 6.114c.533.02.808.535.612 1.225-1.05 3.699-4.976 17.505-5.101 17.966-.144.536-.629.98-1.015.9a23.865 23.865 0 0 1-.692-.151c-.562-.132-1.043-.18-1.631-.072-.273.051-.8.12-1.288.183-.561.07-1.147-.192-1.285-.753-.92-3.715-4.433-17.922-4.586-18.503-.175-.67.28-.832 1.016-.822.477.006 1.937.036 2.898.068.805.025.94.363 1.04.815.084.372 2.425 13.697 2.505 14.087.08.393.427.432.577-.032.13-.4 3.223-11.107 4.087-14.079.126-.43.578-.793 1.087-.813.515-.019 1.366-.032 1.776-.019m17.343 19.213c-.535-.47-1.281-1.08-1.6-1.377-.155-.146-.245-.307-.221-.553l1.122-12.139c.08-.926-.167-1.6-.858-2.345-.72-.776-1.527-1.65-1.659-1.785-.71-.714-1.68-1.084-2.777-1.087-1.445-.006-3.878-.104-4.103-.11-.984-.021-1.622.127-2.508.685a94.313 94.313 0 0 0-1.836 1.182c-.534.381-.838.774-.937 1.349-.151.9-.396 2.345-.427 2.56-.097.649.165.925.702.896.18-.01 1.718-.113 2.598-.165.535-.03.787-.183 1.004-.836.05-.158.514-1.507.769-2.238.187-.51.413-.653.858-.732.598-.105 1.39-.208 1.546-.228.463-.057.759-.006 1.143.247.162.105 1.135.794 1.262.885.169.123.492.467.494.961l.044 3.063s-.011.484-.578.298c-.809-.266-2.873-.979-3.788-.797-.607.12-1.65.52-1.952.65a55.38 55.38 0 0 0-2.567 1.2c-1.051.525-1.4.855-1.572 1.013-.65.598-.678 1.4-.724 2.144-.073 1.206-.251 3.83-.246 4.026.03.896.32 1.678 1.11 2.283 1.081.83 2.529 1.923 2.76 2.1.727.567 2.107.576 2.742.248 1.4-.72 4.366-2.267 4.43-2.304.074-.043.182-.034.229.115.03.098.05.167.071.248.039.149.17.336.316.462.662.56 2.034 1.75 2.124 1.829.473.409.937.404 1.36.17 1.053-.577 1.616-.934 1.703-.983.506-.284.352-.59-.034-.935M61.1 21.81c-.24.127-2.005 1.043-2.973 1.543-.377.198-.9.206-1.263.025-.25-.126-1.068-.563-1.526-.786-.39-.19-.61-.597-.687-1.11-.041-.284-.13-1.867-.185-2.811-.048-.362.068-.95.433-1.245.198-.162.963-.572 1.36-.8.528-.303 1.16-.55 1.524-.693.538-.212 1.035-.157 2.101.134.27.072 1.128.297 1.31.412.313.23.351.6.352.864l.01 3.59c.001.379-.123.701-.456.877m65.991 3.526c.387.34.54.648.032.934-.085.049-.648.405-1.7.982-.424.233-.886.24-1.362-.172-.09-.078-1.462-1.267-2.122-1.826a1.032 1.032 0 0 1-.317-.463 3.476 3.476 0 0 0-.072-.248c-.046-.15-.153-.159-.228-.115-.064.037-3.03 1.583-4.43 2.304-.634.327-2.015.32-2.742-.248-.231-.18-1.68-1.27-2.76-2.1-.789-.607-1.08-1.389-1.11-2.283-.006-.195.173-2.821.247-4.027.045-.743.074-1.547.721-2.143.173-.158.52-.49 1.574-1.014a57.812 57.812 0 0 1 2.566-1.199c.303-.13 1.347-.53 1.953-.65.914-.183 2.98.531 3.789.796.567.186.576-.297.576-.297s-.04-2.865-.04-3.065c-.004-.493-.328-.838-.499-.96a74.672 74.672 0 0 0-1.26-.884c-.385-.254-.68-.302-1.142-.248-.158.019-.95.123-1.548.23-.444.076-.671.222-.858.732-.253.73-.717 2.078-.769 2.236-.217.654-.467.805-1.003.835-.88.053-2.417.157-2.599.165-.535.03-.798-.247-.702-.895.032-.216.277-1.658.43-2.56.095-.574.403-.969.934-1.35.16-.11 1.075-.699 1.838-1.18.885-.56 1.522-.707 2.507-.685.225.005 2.658.104 4.103.108 1.096.004 2.067.375 2.776 1.087.134.136.938 1.01 1.659 1.786.693.745.94 1.42.858 2.346-.023.258-.921 9.981-1.122 12.138-.021.246.067.406.22.553.32.3 1.068.907 1.602 1.38m-5.928-3.52c-.24.126-2.004 1.04-2.974 1.544-.377.197-.901.201-1.262.022-.25-.124-1.066-.56-1.527-.786-.389-.19-.609-.596-.687-1.11-.04-.282-.13-1.865-.184-2.811-.047-.36.068-.95.433-1.245.197-.161.962-.57 1.361-.8.527-.3 1.16-.549 1.523-.691.54-.214 1.034-.158 2.102.132.269.074 1.127.3 1.308.413.313.232.352.597.353.864l.01 3.591c0 .376-.121.702-.456.878M14.166 8.266c-.605-.827-.897-.862-2.074-.857-.207 0-2.572.028-3.465.06-.892.032-1.525.243-2.07.701-.342.286-1.136 1.29-1.228 1.39-.07.075-.2.316-.346.285-.162-.032-.165-.192-.142-.472.107-1.275.436-6.518.532-8.18.05-.563-.19-1.005-.821-1.005-.247 0-2.67.082-3.68.082-.55 0-.88.392-.872.93.004.26.282 21.157.33 24.483.003.281.16.433.459.428a1604.2 1604.2 0 0 0 2.677-.028c.229 0 .39-.18.39-.345 0-.14.51-8.383.642-11.188.038-.982.377-2.195.796-2.541a56.07 56.07 0 0 1 1.71-1.337c.388-.281.679-.29.998-.29a58.65 58.65 0 0 1 1.564.027c.497.016.503.057.92.354.205.146.503.363.763.565.43.33.63.6.622 1.22-.003.132.256 10.027.3 12.45.001.666.107 1.173.775 1.172.173 0 1.192.01 1.877.01.629 0 .671-.521.72-1.105.014-.163.51-9.998.735-12.53.085-1.063-.105-1.577-.604-2.275-.122-.17-.877-1.149-1.508-2.005M141.98 16.09c-.41-.622-.54-.592-2.468-1.109a759.762 759.762 0 0 1-5.596-1.542c-1.253-.357-1.387-.554-1.5-1.542-.038-.322-.07-.801-.116-1.418-.042-.576.025-.739.52-1.02.322-.178 1.424-.82 1.888-1.074.575-.313 1.035-.18 1.732.102.355.145 1.486.626 1.914.805.397.168.39.295.863 1.242.223.442.6.365.879.24.3-.134 1.71-.889 2.004-1.057.56-.316.67-.56.466-.855-.285-.412-.34-.466-.55-.758-.23-.315-.404-.516-.835-1.049-.493-.608-.433-.552-1.467-.767-.724-.152-3.64-.755-4.512-.928-.494-.096-.758-.024-1.258.19a193.85 193.85 0 0 0-3.035 1.38c-1.248.594-1.467.603-1.622.902-.222.43-.132.221-.7 1.355-.668 1.346-.851 1.601-.717 2.06.232.799.711 2.013 1.106 3.155.405 1.168.429 1.323 2.77 1.953 1.351.363 5.445 1.452 5.94 1.62.805.272.9.4 1.241 1.153.15.333.356.866.468 1.154.192.488.444.966.34 1.575-.128.758-.894.967-1.311 1.202-.5.283-1.602.84-2.195 1.112-.77.353-.87.453-1.918-.062-.904-.444-1.175-.615-1.802-.938-.387-.2-.353-.147-.665-.501-.264-.302-.679-.727-1.002-1.129-.465-.574-.841-.423-1.368-.156-.428.217-1.965 1.025-2.357 1.242-.363.2-.36.556-.131.786.433.44 1.427 1.364 1.77 1.677.674.616 1.201 1.094 1.8 1.259 1.196.326 3.226.862 4.594 1.217 1.65.429 1.26.32 2.682-.253.493-.197 3.201-1.307 3.842-1.63.773-.391.876-.498 1.247-1.805.181-.637.686-2.447.856-3.06.202-.74.25-1.32-.142-1.983-.214-.36-1.3-2.205-1.655-2.745M34.509 25.334c-.532-.471-1.28-1.079-1.6-1.379-.155-.145-.243-.307-.221-.551l1.122-12.14c.082-.925-.166-1.6-.86-2.344-.718-.775-1.524-1.65-1.656-1.784-.71-.714-1.681-1.086-2.777-1.091-1.445-.003-3.878-.102-4.104-.107-.985-.02-1.62.124-2.507.685a84.245 84.245 0 0 0-1.836 1.182c-.534.38-.84.775-.936 1.346-.152.903-.398 2.347-.43 2.56-.096.65.168.927.703.898.18-.01 1.718-.112 2.6-.166.534-.029.785-.18 1.002-.835.052-.158.515-1.506.769-2.236.187-.512.414-.654.858-.732.598-.107 1.39-.211 1.546-.23.464-.054.759-.005 1.142.249a69.56 69.56 0 0 1 1.263.884c.17.12.494.467.494.96l.043 3.063s-.01.484-.577.298c-.809-.265-2.873-.978-3.789-.797-.606.12-1.65.52-1.95.651a55.77 55.77 0 0 0-2.57 1.199c-1.05.524-1.4.857-1.57 1.013-.65.598-.678 1.4-.723 2.145-.073 1.205-.252 3.83-.246 4.025.03.897.32 1.679 1.11 2.285 1.08.83 2.53 1.92 2.758 2.099.729.568 2.107.576 2.744.249 1.4-.722 4.366-2.269 4.429-2.304.075-.044.183-.035.229.113.03.096.05.168.073.248.037.148.168.338.314.463.661.56 2.034 1.75 2.124 1.829.474.408.937.403 1.361.17 1.052-.577 1.615-.933 1.7-.982.508-.286.355-.593-.032-.936m-5.928-3.518c-.24.126-2.004 1.041-2.973 1.544-.377.197-.9.203-1.263.023-.25-.125-1.067-.56-1.527-.786-.388-.19-.61-.595-.687-1.111-.04-.281-.128-1.866-.184-2.809-.048-.362.069-.95.431-1.246.199-.162.965-.571 1.363-.8.527-.302 1.16-.55 1.524-.693.538-.211 1.034-.157 2.101.133.27.075 1.128.3 1.309.413.312.232.352.6.352.864l.011 3.591c0 .377-.123.703-.457.877M105.964 7.66c.56.615 1.244 1.457 2.043 2.462.74.933 1.013 1.261.85 2.817-.097.927-.824 9.41-1.141 12.179-.068.588-.338.916-.801.916-.27 0-1.038.005-1.601-.02-.406-.016-.682-.4-.682-1.167 0-.637-.203-9.71-.204-12.384 0-.542-.137-.664-.415-.952-.161-.165-.651-.764-.994-.968-.308-.182-.585-.24-.94-.256-.432-.018-.879-.037-1.554-.037-.408 0-.758.088-1.058.364-.278.258-1.133.888-1.767 1.391-.354.283-.623.73-.677 1.328-.045.484-.55 8.564-.754 11.539-.048.7-.45 1.142-.803 1.143-.355 0-1.526.016-2.004.016-.476 0-.92-.407-.922-1.113-.006-3.781-.061-16.1-.062-17.28 0-1.604.254-1.578 1.567-1.578.416 0 1.4.007 2.206.015.67.003 1.188.211 1.125 1.042-.037.47-.134 1.556-.149 1.933-.024.638.04.87.661.304.115-.107.77-.816 1.228-1.355.433-.511.854-.748 1.788-.802.616-.038 2.301-.13 3.524-.13.565 0 1.111.124 1.536.593m-4.989 15.945a46.25 46.25 0 0 0-1.77.116c-.567.055-.896.164-1.035 1.177-.16 1.152-.081 1.834-1.14 2.296-1.044.453-1.397.523-1.908.582-.917.108-1.153.141-2.024-.04-1.186-.246-1.648-.616-2.277-1.683-.152-.257-.538-.886-.9-1.9-.06-.165-.17-.623-.156-.865.128-2.147.42-11.716.433-11.975.051-.919.182-1.638-.525-2.378-.734-.77-1.588-1.685-1.723-1.818-.667-.654-1.322-.86-2.474-.863-1.429-.005-4.239-.094-4.46-.1-.975-.02-.886-.045-1.784.44-.871.468-2.055 1.376-2.39 1.568-.555.318-.739.725-.814 1.296-.108.783-.356 1.667-.452 2.5-.075.646.196.92.72.89.18-.009 1.696-.112 2.563-.165.528-.03.83-.159 1.023-.81.047-.157.503-1.357.73-2.082.169-.51.444-.86.887-.923.72-.099.858-.156 1.314-.212.871-.106 1.034-.008 1.317.14.17.09.729.506 1.256.855.354.233.646.485.62 1.213-.007.194.067 1.857.038 2.168-.026.312.206 1.134-.384 1.061-.726-.088-1.5-.574-2.97-.776-.247-.034-.829-.131-1.31.03a38.59 38.59 0 0 0-2.053.768c-1.147.494-1.38.63-2.859 1.39-.969.496-1.431 1.09-1.556 2.16-.139 1.209-.263 4.278-.276 4.472-.065 1.073.408 1.933 1.206 2.536 1.093.824 2.317 1.758 2.616 1.974.724.523 1.894.748 2.867.235 1.36-.718 4.082-2.096 4.143-2.133.072-.042.332-.233.382-.087.034.094.15.405.173.485.043.149.23.33.366.47.701.716 1.267 1.34 1.822 1.924 1.298 1.368 1.475 1.481 3.047 1.857 1.704.406 1.82.433 2.145.492.326.058.597.266 3.042-.113 2.444-.38 2.595-.437 2.852-.48.251-.044 1.239-.131 1.642-1.788.404-1.652.628-2.577.685-2.925.056-.346.373-1.031-.649-.979m-15.01-2.825c-.02.635-.032 1.035-.507 1.252-.242.111-1.77.93-2.71 1.431-.46.245-.976.362-1.566.066-.549-.28-.763-.347-1.436-.748a1.429 1.429 0 0 1-.748-1.196c-.04-.648-.14-2.221-.17-2.805-.028-.577.125-.993.821-1.43.315-.195 1.644-.86 2.09-1.074.56-.271 1.356-.304 1.678-.236.27.055 1.572.427 2.016.56.404.12.542.603.532.998-.021.738.007 2.88 0 3.182M70.997 5.111c-1.468-.001-2.656 1.201-2.656 2.686 0 1.483 1.189 2.686 2.656 2.686 1.466 0 2.655-1.203 2.655-2.686 0-1.485-1.19-2.687-2.655-2.687m1.34 7.015c-.888.008-2.221.024-2.706.024-.755 0-1.067.211-1.06 1.048.006.694.025 9.584.031 12.613.002.628.36 1.009.917 1.025.56.015.703.008 1.405.03.704.02 1.026-.356 1.08-.982.269-3.123 1.071-12.484 1.11-12.905.041-.504-.284-.86-.777-.853" mask="url(#b)"/></g><path fill="#020203" d="M60.586 29.311c-1.008-.587-1.993-.69-2.924-.305-.967.395-1.827 1.337-2.504 2.67.12-1.465.26-2.783.419-3.912.002-.017.014-.069.014-.069.016-.07.034-.156.034-.248a.428.428 0 0 0-.158-.348c-.233-.19-.534-.062-.697.015-.833.34-1.367 1.075-1.59 2.184C52.493 33.3 52 40.424 52 47.002c0 2.892.097 5.68.31 8.05.195 2.072 1.558 2.713 2.135 2.894.136.036.474.134.716-.08.231-.207.178-.526.162-.631l.003.024c-.385-3.59-.585-8.17-.608-13.607.113.095.215.193.333.28 1.07.693 2.293.814 3.457.35 1.898-.76 3.383-2.902 4.079-5.877.976-4.24.189-7.808-2-9.094m-.545 7.581c-.478 2.54-1.496 4.48-2.72 5.188-.4.231-.781.3-1.07.2h-.006c-.82-.27-1.249-1.643-1.123-3.578.249-3.651 1.775-6.34 3.175-7.387.396-.293.762-.429 1.006-.376.422.132 1.379 2.523.738 5.953m32.145-5.902l-1.143-.72c-5.927-3.721-13.3-8.351-13.408-14.405-.061-2.868 1.182-5.898 3.317-8.103 2.084-2.148 4.839-3.358 7.76-3.406 2.213-.051 4.207.743 5.762 2.29 1.804 1.792 2.836 4.455 2.773 7.13-.057 2.101-.752 4.935-2.181 6.537-.39.472-.328.802-.2.994.253.397.846.36 1.084.307 2.83-.398 5.049-4.148 5.049-8.544C101 7.998 97.846 2.057 88.95 2c-4.058-.032-8.024 1.563-10.882 4.38C75.447 8.962 74 12.334 74 15.873c0 7.79 7.413 12.445 13.372 16.188l2.54 1.62c4.627 3.018 6.728 5.122 5.38 8.257-1.106 2.56-5.485 3.104-8.894 2.791-3.431-.308-7.681-1.491-8.47-5.394-.143-.76-.582-.824-.761-.813-.66.03-.98.995-1.058 1.812-.048.572-.086 2.577 1.574 4.473 1.68 1.91 4.424 2.977 8.17 3.168 4.083.215 9.623-.978 11.786-5.067 1.666-3.146 2.322-7.015-5.452-11.92m-66.844-1.425c1.154-.064 1.91-.485 2.482-1.394a.79.79 0 0 0 .175-.465c0-.093-.02-.17-.046-.231-.097-.238-.333-.388-.699-.441-.603-.1-1.264-.15-1.974-.164.01-10.418.489-21.061 1.163-26l-.006.026c.088-.432-.09-.66-.204-.757-.108-.087-.343-.22-.712-.068-1.373.55-1.766 1.776-1.951 2.784-.815 4.17-1.492 13.728-1.689 23.875-4.386-.102-9.126.118-12.894.597-.01-.88-.018-1.763-.018-2.643 0-8.265.405-16.284 1.064-20.627l.006-.034v-.032c0-.31-.112-.555-.316-.681-.14-.085-.376-.154-.7.007-1.364.62-1.743 1.779-1.916 2.714-.912 4.287-1.564 13.026-1.64 21.823-1.13.179-2.132.4-2.979.667-1.413.406-2.19 1.92-2.444 3.2a1.384 1.384 0 0 0-.045.348c0 .192.049.415.229.578.321.294.788.137.942.088 1.097-.435 2.466-.808 4.297-1.18.015 4.608.215 8.532.586 11.359.318 2.553 1.824 3.33 3.032 3.537.236.032.56.05.787-.182a.707.707 0 0 0 .181-.503c0-.093-.012-.172-.02-.214-.494-3.49-.822-8.17-1.03-14.681 3.927-.63 8.542-1.07 12.81-1.216.01 6.497.226 11.459.646 14.727.31 2.583 1.72 3.384 2.846 3.593.308.045.67.063.909-.187a.662.662 0 0 0 .182-.48.963.963 0 0 0-.014-.169c-.6-4.285-.966-10.52-1.04-17.574m114.605 7.495c-1.628-3.714-1.976-6.367-.957-7.283l-.026.022c.227-.173.361-.395.38-.628a.746.746 0 0 0-.238-.587c-.388-.424-.874-.678-1.36-.697-.46-.02-.898.162-1.298.535-1.47 1.366-2.615 3.958-3.497 7.885-.039-.03-.07-.07-.123-.084-.278-.088-.487.124-.576.214-.383.417-.486 1.022-.486 1.563 0 .485.082.92.129 1.124.093.335.184.657.237.97a11.11 11.11 0 0 0-.097.327c-.071.221-.14.441-.185.657-.606 1.128-1.307 1.837-1.898 2.166-.412.23-.794.298-1.106.194-.706-.221-1.62-1.732-2.007-4.106 2.104-1.134 3.557-3.035 3.992-5.268.086-.443.128-.883.128-1.317 0-1.446-.466-2.805-1.34-3.787-.705-.798-1.479-1.209-2.305-1.225-.805-.014-1.612.363-2.273 1.06-.422.446-1.267 1.522-1.957 3.378.117-6.3.724-12.459 1.31-16.436l-.007.036c.076-.306-.02-.492-.116-.594-.094-.106-.275-.217-.608-.163l-.04.01-.042.014c-.866.358-1.44 1.137-1.649 2.26-1.238 5.677-1.777 14.418-1.418 21.757-.751 1.837-2.157 3.518-3.466 4.075-.62.267-1.194.271-1.699.019-.995-.494-1.577-2.564-1.483-5.268.128-3.406 1.425-6.244 2.312-6.981.162-.134.279-.174.336-.167.05.004.122.06.207.189.404.662.584 2.656-.145 4.68l-.004.016-.005.017c-.022.09-.073.298.064.476.141.184.355.184.596.184h.029c1.095-.068 2.231-1.368 2.231-3.425 0-1.493-.83-2.887-2.221-3.728-.764-.486-1.661-.524-2.521-.101-.697.338-1.319.943-1.852 1.757-.88 1.13-2.273 3.015-2.353 3.096-.062.06-.484.52-.56.58-.45-1.859-1.278-3.306-2.329-4.015-.46-.312-.939-.45-1.395-.417-.581-.575-1.253-.565-1.677-.357l-.01.005c-1.572.84-3.088 3.782-3.46 6.704-.73 6.144 2.36 7.884 3.718 8.347 1.171.404 2.338.222 3.284-.514 1.474-1.15 2.275-3.42 2.275-6.35 0-.439-.024-.896-.062-1.363.317-.347.612-.633.918-1.03-.062.382-.116.773-.15 1.177-.564 6.24 2.359 8.002 4.148 8.497 1.358.364 2.656.203 3.764-.467.7-.425 1.304-1.05 1.792-1.82l.007.087c.216 1.987 1.195 2.632 2.119 3.004l.043.015.043.005c.119.019.485.07.718-.172.144-.146.2-.354.154-.605-1.278-8.12 1.672-14.187 3.546-15.026.4-.177.592-.03.714.118.37.453.465 1.445.236 2.525-.17.807-.952 3.569-3.902 5.075l-.021.014-.022.016c-.442.312-.64.749-.561 1.226.413 3.348 2.256 5.814 4.692 6.264 1.317.253 2.526-.02 3.486-.78.551-.437.996-1.03 1.342-1.733.83 1.254 1.872 2.063 3.022 2.301 1.214.251 2.438-.118 3.45-1.05 1.487-1.414 1.516-3.8.085-7.097zm-33.724-5.288c.484.115 1.089 1.288 1.39 3.164-.752-.4-1.137-1.325-1.25-1.647a3.462 3.462 0 0 1-.208-1.11c0-.215.03-.345.068-.407zm1.579 5.684c0 2.838-.807 4.803-1.594 5.448-.23.193-.459.265-.67.219h-.005c-.38-.083-1.65-1.46-1.65-4.49a13.897 13.897 0 0 1 .61-3.965c.5 1.427 1.64 2.618 3.309 2.738v.05zm30.665 5.375c-.194.218-.554.202-.754.176-1.006-.144-2.53-1.243-3.564-3.305.002-.029.009-.054.009-.085.002-.038.002-.07.002-.108l.134-.547c.432-1.828.91-3.837 1.584-5.48.115 1.275.56 2.792 1.354 4.587 0-.003.144.32.144.32.698 1.603 1.66 3.793 1.09 4.442zM48.566 29.311c-1.013-.587-2.004-.69-2.948-.305-.971.395-1.84 1.337-2.524 2.67a68.45 68.45 0 0 1 .423-3.912l.013-.069c.016-.07.037-.156.037-.248a.431.431 0 0 0-.157-.348c-.235-.19-.541-.062-.708.015-.836.34-1.376 1.075-1.6 2.184-.44 2.526-.797 6.296-1.002 10.384-.576 1.579-1.41 2.41-1.687 2.387-.016-.006-.08-.045-.16-.18-.748-1.195-1.077-6.258.131-11.168.066-.329-.037-.511-.134-.61-.099-.096-.285-.201-.603-.136a2.26 2.26 0 0 0-1.058.61c-.283-.49-.686-1.003-1.248-1.328-.8-.481-1.709-.54-2.626-.169-1.865.758-3.42 3.135-4.27 6.517-1.299 5.245.458 7.92 2.537 8.677 1.068.399 2.018.385 2.816-.04.802-.427 1.43-1.263 1.876-2.484.467 1.192 1.204 1.955 2.227 2.323.73.27 1.429.248 2.044-.052-.02.994-.033 1.989-.033 2.973 0 2.892.096 5.68.311 8.05.2 2.072 1.573 2.713 2.155 2.894.134.036.474.134.718-.08.235-.207.18-.526.163-.631l.004.024c-.386-3.59-.589-8.17-.608-13.607.11.095.217.193.336.28 1.073.693 2.307.814 3.482.35 1.911-.76 3.41-2.902 4.11-5.877.983-4.24.192-7.808-2.017-9.094m-13.315 5c-.195 4.274-1.522 7.182-2.678 8.076-.238.182-.457.265-.618.236-.547-.122-1.201-1.117-1.201-3.258 0-.657.06-1.42.207-2.297.473-2.886 1.904-5.415 2.96-6.1.233-.152.349-.14.378-.133.54.144 1.047 1.386.952 3.476m12.766 2.581c-.48 2.54-1.503 4.481-2.742 5.188-.4.231-.785.3-1.079.2h-.004c-.827-.27-1.261-1.643-1.133-3.578.25-3.651 1.79-6.34 3.203-7.387.4-.293.768-.429 1.014-.376.423.132 1.385 2.523.741 5.953m23.911-7.582l.004-.021v-.023c0-.146 0-.384-.19-.546-.186-.158-.424-.12-.61-.07-.848.185-1.35.818-1.658 2.115-.231 1.031-.366 2.721-.526 4.676l-.15 1.747c-.411 4.564-1.337 4.976-1.517 5.012-.284.062-.65-.413-.945-1.212-.941-2.53-.558-8.83.066-12.216.024-.19.059-.448-.11-.632-.164-.178-.38-.149-.604-.114h-.006c-.69.117-1.254.836-1.503 1.921-1.039 4.83-1.208 11.02.482 13.504.82 1.187 2.157 1.433 3.253.598.453-.34.828-.79 1.161-1.343.061 1.975.158 3.753.294 5.384.078 1.01.118 1.878.118 2.625 0 2.031-.293 3.152-.917 3.614-.35.262-.77.302-1.207.118-1.213-.503-2.299-2.446-2.902-5.19-.105-.51-.398-.606-.522-.62-.25-.032-.49.136-.631.437-.253.55-.481 1.595-.122 3.428.428 2.154 1.503 3.764 2.884 4.305.758.295 1.959.4 3.371-.807 1.368-1.16 2.908-3.49 2.489-7.977-.29-3.092-.874-11.097-.002-18.714M142 27c-1.144 0-2-.882-2-1.996 0-1.117.856-2.004 2-2.004 1.147 0 2 .882 2 1.997 0 1.117-.853 2.003-2 2.003zm0-3.652c-.979 0-1.626.701-1.626 1.656 0 .95.647 1.649 1.626 1.649.982 0 1.63-.702 1.63-1.656 0-.952-.648-1.649-1.63-1.649zm.45 2.662l-.355-.767h-.418v.767h-.369v-2.086h.783c.403 0 .752.228.752.654 0 .273-.124.49-.382.604l.392.828h-.403zm-.36-1.749h-.414v.644h.415c.22 0 .364-.098.364-.327 0-.212-.165-.317-.364-.317zM72.228 80.23L67.458 85 64 81.543l4.77-4.77-4.61-4.61 3.056-3.056 4.61 4.61L76.543 69 80 72.457l-4.717 4.717 4.556 4.556-3.055 3.055z"/><g transform="translate(144 98)"><mask id="d" fill="#fff"><use xlink:href="#c"/></mask><path fill="#020203" d="M1.983 3.865C.897 3.865.084 3.014.084 1.938.084.86.897.004 1.983.004c1.088 0 1.898.85 1.898 1.928 0 1.078-.81 1.933-1.898 1.933zm0-3.525c-.93 0-1.544.677-1.544 1.598 0 .918.615 1.592 1.544 1.592.932 0 1.546-.678 1.546-1.598S2.915.34 1.983.34zm.427 2.57l-.337-.741h-.397v.74h-.35V.897h.743c.382 0 .714.22.714.63 0 .265-.118.474-.363.584l.372.8H2.41zm-.34-1.69h-.395v.622h.394c.21 0 .346-.094.346-.316 0-.205-.157-.306-.346-.306z" mask="url(#d)"/></g></g></svg>